<?xml version="1.0" standalone="no"?>
<!DOCTYPE svg PUBLIC "-//W3C//DTD SVG 20010904//EN"
 "http://www.w3.org/TR/2001/REC-SVG-20010904/DTD/svg10.dtd">
<svg version="1.0" xmlns="http://www.w3.org/2000/svg"
 width="330.000000pt" height="330.000000pt" viewBox="0 0 330.000000 330.000000"
 preserveAspectRatio="xMidYMid meet">
<metadata>
Created by potrace 1.14, written by Peter Selinger 2001-2017
</metadata>
<g transform="translate(0.000000,330.000000) scale(0.100000,-0.100000)"
fill="#000000" stroke="none">
<path d="M2755 2053 c-49 -30 -97 -58 -104 -63 -12 -6 -15 -35 -15 -135 -1
-146 -15 -124 132 -210 l84 -48 36 19 c21 11 70 39 110 63 l72 43 1 47 c3 139
4 211 2 211 -9 0 -79 -45 -85 -54 -4 -6 -8 -42 -8 -81 l0 -70 -63 -36 -63 -35
-39 23 c-22 13 -50 29 -63 35 -21 11 -23 17 -20 92 3 69 6 82 23 91 46 24 185
107 185 110 0 5 -85 55 -91 54 -2 0 -44 -25 -94 -56z"/>
<path d="M3000 2069 c-77 -46 -118 -83 -132 -118 -12 -28 -20 -221 -9 -221 3
0 24 11 46 23 39 22 40 23 41 82 1 84 7 97 68 134 l54 33 49 -27 c69 -38 74
-46 79 -110 6 -77 -6 -93 -116 -157 -50 -29 -90 -55 -90 -58 0 -11 90 -59 95
-50 3 4 33 24 68 43 109 62 137 106 137 220 0 61 -22 119 -56 148 -20 16 -160
100 -166 98 -2 0 -32 -18 -68 -40z"/>
<path d="M835 1998 c-2 -7 -18 -94 -35 -193 -30 -169 -64 -359 -75 -415 -2
-13 -7 -42 -10 -65 -4 -22 -10 -54 -15 -72 -4 -17 -5 -34 -2 -37 3 -3 34 -6
68 -6 68 0 66 -2 76 65 3 18 12 20 81 23 64 2 77 0 78 -13 1 -8 3 -19 4 -25 1
-5 3 -19 4 -30 1 -18 8 -20 71 -20 68 0 70 1 65 23 -2 12 -6 36 -9 52 -2 17
-21 125 -41 240 -20 116 -40 235 -46 265 -5 30 -11 64 -13 75 -2 11 -7 40 -11
65 -12 84 -7 80 -101 80 -59 0 -86 -4 -89 -12z m115 -398 c12 -85 23 -159 24
-165 0 -5 -23 -10 -51 -11 -34 -1 -53 2 -53 9 0 7 9 64 19 127 10 63 22 138
26 165 9 62 9 63 35 -125z"/>
<path d="M1179 1902 c0 -59 -1 -237 -1 -397 l-1 -290 69 0 69 0 0 325 0 325
108 3 107 3 0 69 0 69 -175 0 -175 0 -1 -107z"/>
<path d="M1566 1983 c4 -15 32 -102 63 -193 l57 -165 -63 -195 c-35 -107 -63
-201 -63 -208 0 -10 17 -12 67 -10 l68 3 35 137 c19 75 38 139 40 142 3 3 19
-45 34 -107 16 -62 33 -127 38 -144 l9 -33 71 0 c63 0 69 2 63 18 -3 9 -33
103 -66 207 l-60 191 61 179 c33 98 60 184 60 191 0 10 -18 13 -65 13 l-65 -1
-19 -66 c-11 -37 -28 -98 -37 -135 -9 -37 -19 -66 -21 -63 -3 3 -22 62 -42
133 l-37 128 -67 3 -68 3 7 -28z"/>
<path d="M2049 1713 c0 -164 0 -336 -1 -383 0 -47 1 -93 1 -103 1 -16 9 -18
69 -15 l67 3 1 135 c1 108 4 142 18 169 l18 34 24 -49 c13 -27 48 -103 78
-169 l54 -120 77 -3 c60 -2 76 0 72 10 -3 7 -53 115 -111 240 l-107 227 34 53
c19 29 64 101 101 161 l66 107 -70 0 -71 0 -89 -137 c-50 -76 -90 -135 -90
-133 -1 3 -2 64 -3 135 l-2 130 -67 3 -68 3 -1 -298z"/>
<path d="M339 1463 c-8 -55 -7 -64 6 -53 10 8 14 8 18 -2 3 -7 6 0 6 16 1 25
-1 27 -15 15 -15 -12 -16 -11 -10 9 4 12 5 22 2 22 -3 0 -7 -3 -7 -7z"/>
<path d="M150 1451 c-8 -6 -17 -8 -20 -6 -3 2 -7 -5 -7 -16 -1 -10 2 -19 8
-19 5 0 9 7 9 15 0 8 7 15 15 15 8 0 15 5 15 10 0 12 -1 12 -20 1z"/>
<path d="M29 1448 c-1 -5 -2 -11 -3 -15 -1 -5 -4 -13 -8 -18 -4 -6 2 -11 13
-11 10 0 19 3 18 6 -1 13 -18 44 -20 38z"/>
<path d="M62 1430 c4 -34 44 -38 44 -4 0 13 -4 24 -8 24 -4 0 -8 -6 -8 -14 0
-8 -5 -18 -12 -22 -6 -4 -8 -3 -5 2 3 6 1 16 -4 24 -8 12 -9 9 -7 -10z"/>
<path d="M167 1430 c-19 -19 -22 -30 -6 -30 5 0 8 4 5 9 -7 11 22 23 35 15 5
-3 9 0 9 6 0 6 5 8 10 5 6 -3 10 -1 10 4 0 16 -43 9 -63 -9z"/>
<path d="M256 1435 c-11 -8 -16 -18 -13 -22 4 -3 7 -2 7 2 0 5 6 1 13 -8 17
-23 41 -7 32 22 -7 25 -13 25 -39 6z m29 -25 c-6 -9 -9 -9 -16 1 -10 17 0 34
13 21 6 -6 7 -16 3 -22z"/>
<path d="M312 1430 c0 -14 2 -19 5 -12 2 6 2 18 0 25 -3 6 -5 1 -5 -13z"/>
<path d="M205 1400 c4 -6 11 -8 16 -5 14 9 11 15 -7 15 -8 0 -12 -5 -9 -10z"/>
<path d="M22 1358 c-14 -14 -16 -28 -3 -28 5 0 11 9 14 20 6 23 5 24 -11 8z"/>
<path d="M585 1361 c-4 -7 1 -8 12 -4 17 6 17 5 1 -14 -21 -23 -24 -40 -4 -24
11 9 15 9 19 -1 3 -7 4 0 3 16 -1 30 -19 45 -31 27z"/>
<path d="M55 1350 c-3 -5 -1 -10 4 -10 6 0 11 5 11 10 0 6 -2 10 -4 10 -3 0
-8 -4 -11 -10z"/>
<path d="M90 1352 c14 -6 16 -14 11 -39 0 -4 -6 -2 -13 5 -15 15 -48 16 -48 1
0 -5 4 -7 10 -4 5 3 19 1 31 -5 17 -10 23 -8 35 7 8 10 13 13 14 6 0 -7 7 -13
16 -13 10 0 6 8 -14 25 -17 14 -36 25 -43 24 -10 0 -10 -2 1 -7z"/>
<path d="M144 1345 c8 -8 17 -15 20 -15 3 0 3 7 0 15 -4 8 -13 15 -21 15 -12
0 -12 -2 1 -15z"/>
<path d="M174 1326 c-1 -17 1 -25 3 -18 3 6 10 9 16 5 6 -4 8 0 4 10 -3 9 -2
19 3 22 9 6 14 -8 11 -27 -2 -14 11 -8 25 10 17 22 18 38 1 23 -8 -6 -17 -8
-21 -4 -3 4 -14 7 -24 8 -12 1 -17 -7 -18 -29z"/>
<path d="M260 1351 c0 -5 5 -13 10 -16 6 -3 10 -2 10 4 0 5 -4 13 -10 16 -5 3
-10 2 -10 -4z"/>
<path d="M292 1343 c-7 -13 -18 -20 -26 -17 -8 3 -16 1 -19 -3 -3 -5 4 -10 15
-10 24 -2 51 22 45 40 -2 7 -8 3 -15 -10z"/>
<path d="M324 1348 c3 -10 -2 -22 -12 -27 -16 -10 -16 -10 1 -11 9 0 17 5 17
10 0 6 5 10 11 10 5 0 7 -5 3 -12 -4 -6 -3 -8 4 -5 5 4 8 17 4 29 -3 14 -7 17
-10 9 -4 -11 -6 -11 -14 0 -8 11 -9 10 -4 -3z"/>
<path d="M390 1344 c0 -8 -4 -12 -10 -9 -5 3 -10 2 -10 -3 0 -23 26 -18 28 4
1 13 0 24 -3 24 -3 0 -5 -7 -5 -16z"/>
<path d="M412 1336 c2 -16 10 -31 18 -33 12 -4 13 -3 1 5 -7 5 -11 14 -8 19 3
5 1 15 -4 23 -7 11 -9 7 -7 -14z"/>
<path d="M436 1348 c3 -4 9 -8 15 -8 5 0 9 4 9 8 0 5 -7 9 -15 9 -8 0 -12 -4
-9 -9z"/>
<path d="M492 1335 c0 -16 2 -24 5 -17 4 10 8 10 17 -2 7 -11 16 -13 25 -7 12
8 12 14 3 33 l-13 23 5 -22 c2 -13 0 -26 -5 -29 -9 -5 -13 8 -10 36 2 12 0 13
-7 1 -8 -11 -10 -11 -15 0 -3 8 -5 1 -5 -16z"/>
<path d="M555 1351 c-3 -5 -1 -12 5 -16 5 -3 10 1 10 9 0 18 -6 21 -15 7z"/>
<path d="M440 1326 c0 -2 6 -9 14 -15 11 -9 16 -9 22 0 4 8 3 9 -4 5 -7 -4
-12 -2 -12 3 0 6 -4 11 -10 11 -5 0 -10 -2 -10 -4z"/>
<path d="M13 1247 c2 -33 13 -35 23 -5 6 21 7 21 21 -5 13 -27 33 -29 33 -4 0
7 -4 6 -10 -3 -8 -13 -10 -13 -10 1 0 23 -26 44 -35 28 -6 -8 -10 -8 -15 1 -5
8 -7 3 -7 -13z"/>
<path d="M102 1239 c1 -19 3 -28 5 -21 3 6 9 10 14 6 13 -8 10 8 -6 30 -13 17
-14 15 -13 -15z"/>
<path d="M136 1261 c-4 -7 -5 -15 -2 -18 9 -9 19 4 14 18 -4 11 -6 11 -12 0z"/>
<path d="M161 1254 c0 -11 3 -14 6 -6 3 7 2 16 -1 19 -3 4 -6 -2 -5 -13z"/>
<path d="M184 1246 c1 -14 4 -28 7 -31 3 -3 5 6 5 19 -1 14 -4 28 -7 31 -3 3
-5 -6 -5 -19z"/>
<path d="M211 1243 c2 -24 2 -25 6 -5 3 13 9 19 15 16 7 -4 8 -2 4 4 -13 21
-26 13 -25 -15z"/>
<path d="M250 1255 c0 -8 4 -15 10 -15 5 0 7 7 4 15 -4 8 -8 15 -10 15 -2 0
-4 -7 -4 -15z"/>
<path d="M291 1247 c-1 -16 3 -26 8 -22 5 3 12 1 16 -5 9 -15 25 -2 25 22 0
15 4 18 18 13 13 -5 14 -3 5 6 -15 15 -33 3 -33 -22 0 -12 -4 -17 -11 -14 -6
4 -8 14 -5 22 3 8 2 12 -3 8 -5 -3 -12 1 -14 7 -3 7 -6 0 -6 -15z"/>
<path d="M230 1227 c0 -7 11 -13 25 -13 28 -2 25 11 -5 19 -11 3 -20 0 -20 -6z"/>
<path d="M140 1220 c0 -5 7 -7 15 -4 8 4 15 8 15 10 0 2 -7 4 -15 4 -8 0 -15
-4 -15 -10z"/>
<path d="M350 1219 c0 -5 5 -7 10 -4 6 3 10 8 10 11 0 2 -4 4 -10 4 -5 0 -10
-5 -10 -11z"/>
</g>
</svg>
